<svg xmlns="http://www.w3.org/2000/svg" viewBox="0 0 973.7 360" enable-background="new 0 0 973.7 360"><path fill="#fff" d="M.8 360.8v-360h973.7v360h-973.7zm968.5-197.9c-.8-28.8-1.4-52.3-2-75.8-.3-12.6-.6-25.2-1.1-37.8-.1-2 1.1-4.9-2.2-5.7-3.9-.9-7.8-2-11.8-2.5-32.7-4-65.5-8.1-98.3-11.5-36.3-3.8-72.6-8-108.9-9.9-56.5-2.9-113.1-4.3-169.6-5.8-34.7-.9-69.5-1.1-104.2-1.4-28.3-.2-56.6-.3-84.9 0-24.7.2-49.4.3-74 1.7-45.6 2.5-91.3 4.9-136.8 9.3-49.8 4.7-99.3 11.6-149 17.6-10.3 1.2-13.5 5.2-13.5 15.5.1 28.4.3 56.9.2 85.3l-.2 120c0 11.4 2.8 14.8 14.1 16.6 38 5.8 76.1 11.4 114.1 17.1l118.9 18c36.6 5.5 73.2 11 109.7 16.7 28.1 4.4 56.1 8.9 84.2 13.5 13.4 2.2 26.8 4.9 40.4 3.1 26.6-3.5 53.1-7.5 79.6-11.4l111-16.5 113.7-17.2c34.5-5.2 68.9-10.5 103.4-15.8 17.6-2.7 35.3-5.3 52.9-8.1 7.6-1.2 10.4-4.5 10.7-12.1l.1-6.8c1.2-33.9 2.5-67.6 3.5-96.1z"/><path d="M969.3 162.9c-1 28.4-2.3 62.2-3.5 95.9l-.1 6.8c-.3 7.6-3.1 10.9-10.7 12.1-17.6 2.8-35.2 5.4-52.9 8.1l-103.4 15.8c-37.9 5.8-75.8 11.5-113.7 17.2-37 5.6-74 11.1-111 16.5-26.5 3.9-53 8-79.6 11.4-13.6 1.8-27-.9-40.4-3.1-28-4.6-56.1-9.1-84.2-13.5-36.6-5.7-73.1-11.2-109.7-16.7l-118.9-18-114.1-17.1c-11.3-1.7-14.1-5.2-14.1-16.6.1-40 .2-80 .2-120l-.2-85.3c0-10.3 3.2-14.3 13.4-15.5 49.6-6 99.2-12.8 149-17.6 45.5-4.3 91.2-6.7 136.8-9.3 24.6-1.4 49.3-1.5 74-1.7 28.3-.3 56.6-.2 84.9 0 34.7.3 69.5.4 104.2 1.4 56.6 1.5 113.1 2.9 169.6 5.8 36.4 1.9 72.7 6.1 108.9 9.9 32.8 3.4 65.5 7.6 98.3 11.5 4 .5 7.9 1.6 11.8 2.5 3.3.8 2.1 3.7 2.2 5.7.5 12.6.7 25.2 1.1 37.8.7 23.7 1.4 47.2 2.1 76zm-332.6-133.2h-4.9c-26.8.1-53.7.4-80.5.1-6.1-.1-9.2 2.7-11.4 7.6-.9 2.1-1.5 4.3-1.9 6.5-1.2 5.6-2.2 11.2-3.3 17.1-2-.4-3.7-.6-5.6-1 .7-9.8 1.3-19.4 2-29.1h-85.6c1 9.9 1.9 19.4 2.9 29.1-2.1.4-3.7.8-5.7 1.1-.5-2.3-.8-4.4-1.4-6.5-1.9-6.8-3.8-13.6-6-20.4-.9-2.9-3.1-4.2-6.5-4.2-20.1 0-40.2-.2-60.4-.4h-22.7c5 12.8 9.7 25.1 14.5 37.6l-5.6 2.1c-4.1-8.9-8.2-17.3-12-25.9-3.4-8-8-11.3-16.7-11.2-4 0-8 .4-12 .7-51.9 3.5-103.8 7.1-155.7 10.7-7.7.5-15.3 1.6-23.4 2.4 8.7 9 17 17.7 25.4 26.4-.9.9-2 1.9-3.2 3-1.2-.9-2.2-1.7-3.3-2.5-8-6.4-15.9-12.8-23.9-19.1-5.5-4.3-11.6-6.1-18.8-5-13.8 2.1-27.7 3.5-41.5 5.2-9.8 1.3-19.7 2.7-29.5 4.1-5 .7-8.9 2.9-10.1 8.3-2.6 11.5 3.6 28.1 12.5 33.2 3.7 2.2 6.8 5.6 10 8.4-1.2 3.2-3 3.4-5.5 2.1-5.9-2.8-11.8-5.5-18.2-8.4v8.7c-.2 14.5-.4 29-.5 43.4 0 8.4 3.6 13 11.1 15.9 4.6 1.8 8.8 4.6 13.1 6.9-1.2 3.6-2.6 4.5-5.2 3.4-2.1-.9-4.3-1.4-6.5-2.1-3.6-1.2-7.2-2.3-11.4-3.7v5.6c0 8.6.2 17.2-.2 25.7-.5 11.1 1.9 14.6 12.7 17.4 40.2 10.3 80.5 20.6 120.7 31 4.3 1.1 8.3 3.5 12.7 5.4-.8 1.8-1.2 3-1.9 4.5-47.3-11.9-94.4-23.8-142.7-35.9v17.3c0 10.9 2.7 14.8 13.4 16.6 25.5 4.2 51.1 8.1 76.7 12 36 5.6 72.1 11.1 108.1 16.6l103 15.6c31.7 4.8 63.3 9.7 95.1 14.2 18 2.6 36.1 5 54.3 6.5 20.1 1.7 39.9-2.2 59.6-4.9 34-4.6 68-9.7 101.9-14.9 42.4-6.4 84.8-13.2 127.2-19.7l120.1-18.3c15.2-2.3 30.5-4.5 45.7-7.3 9-1.7 12.3-5.5 12.3-10.6v-27.3c-52 13.3-103.1 29.4-156.9 39.4 4.4-5 9.1-6.6 14-7.9 43.2-12.1 86.5-24.1 129.6-36.4 3.9-1.1 7.8-3 11.1-5.3 1.9-1.3 3.4-4.3 3.6-6.6.6-7.7.6-15.5.8-23.3.1-4.5 0-9 0-13.8-8.9 2.2-16.7 4.2-24.7 6.2-.5-1.9-.9-3.2-1.3-4.7 2.6-1.2 5-2.1 7.3-3.2 4.5-2.3 9.1-4.5 13.5-7.1 3.7-2.2 5.4-5.4 5.4-10-.2-14.1.1-28.2.2-42.3v-14.3c-18.9 10.7-37.1 20.9-55.4 31.2-.8-1-1.4-1.9-2.5-3.4 6.1-4.7 11.8-10 18.2-13.9 9-5.5 18.4-10.4 27.9-15.1 6.6-3.3 10.1-8.2 9.9-15.5-.1-4.3-.4-8.6-.8-12.8-.4-4.2-2.8-6.5-7-6.9-3.3-.3-6.7-.4-10-.8-14.3-2-28.6-4.3-43-6.2-9.3-1.2-18.5-.7-25.4 6.7-3.7 3.9-7.8 2.6-12.8 3.1 4.1-4.5 7.5-8.3 11.3-12.5-3.6-.6-6.5-1.1-9.4-1.4-7.1-.6-14.2-1.1-21.3-1.6-56-4.3-112.1-8.6-168.1-12.8-13.2-1-19.5 3.2-24.6 15.3-1.7 4-5.1 7.3-7.5 10.7-3.5-1.3-3.5-3-2.6-5.4 3.1-7.6 6-15.2 9.2-23.4z"/><path fill="#fff" d="M636.7 29.7c-3.2 8.2-6.1 15.8-9.2 23.3-1 2.4-1 4.1 2.6 5.4 2.4-3.4 5.8-6.7 7.5-10.7 5.1-12.1 11.3-16.3 24.6-15.3 56 4.3 112.1 8.6 168.1 12.8 7.1.5 14.2 1 21.3 1.6 2.9.3 5.8.9 9.4 1.4-3.8 4.3-7.2 8-11.3 12.5 5-.5 9.1.8 12.8-3.1 6.9-7.4 16.1-8 25.4-6.7 14.4 1.9 28.7 4.2 43 6.2 3.3.5 6.7.5 10 .8 4.3.4 6.7 2.6 7 6.9.4 4.3.6 8.6.8 12.8.2 7.4-3.3 12.2-9.9 15.5-9.5 4.7-18.9 9.5-27.9 15.1-6.4 4-12.1 9.2-18.2 13.9 1.1 1.5 1.7 2.4 2.5 3.4 18.3-10.3 36.4-20.5 55.4-31.2v14.3c-.1 14.1-.3 28.2-.2 42.3.1 4.6-1.7 7.8-5.4 10-4.4 2.6-9 4.8-13.5 7.1-2.3 1.1-4.6 2.1-7.3 3.2.4 1.5.8 2.9 1.3 4.7 8-2 15.9-4 24.7-6.2 0 4.9.1 9.4 0 13.8-.2 7.8-.2 15.6-.8 23.3-.2 2.3-1.7 5.3-3.6 6.6-3.3 2.3-7.2 4.2-11.1 5.3-43.2 12.2-86.4 24.3-129.6 36.4-4.9 1.4-9.7 3-14 7.9 53.7-10 104.8-26.1 156.9-39.4v27.3c0 5.1-3.3 8.9-12.3 10.6-15.2 2.8-30.4 5-45.7 7.3-40 6.1-80.1 12.1-120.1 18.3l-127.2 19.7c-33.9 5.1-67.9 10.2-101.9 14.9-19.8 2.7-39.6 6.7-59.6 4.9-18.1-1.6-36.2-4-54.3-6.5-31.7-4.5-63.4-9.4-95.1-14.2l-103-15.6c-36-5.5-72.1-11-108.1-16.6-25.6-3.9-51.2-7.8-76.7-12-10.7-1.8-13.4-5.7-13.4-16.6v-17.3c48.3 12.2 95.4 24 142.7 35.9.6-1.5 1.1-2.7 1.9-4.5-4.4-1.9-8.4-4.3-12.7-5.4-40.2-10.5-80.4-20.7-120.7-31-10.9-2.8-13.2-6.2-12.7-17.4.4-8.6.2-17.2.2-25.7v-5.6c4.2 1.4 7.8 2.5 11.4 3.7 2.2.7 4.4 1.2 6.5 2.1 2.6 1.1 4 .2 5.2-3.4-4.3-2.3-8.5-5-13.1-6.9-7.5-2.9-11.1-7.5-11.1-15.9.1-14.5.3-29 .5-43.4v-8.7c6.3 2.9 12.3 5.5 18.2 8.4 2.5 1.2 4.3 1.1 5.5-2.1-3.3-2.8-6.3-6.2-10-8.4-8.8-5-15-21.6-12.4-33.1 1.2-5.4 5.1-7.6 10.1-8.3 9.8-1.4 19.6-2.8 29.5-4.1 13.8-1.8 27.7-3.2 41.5-5.2 7.2-1.1 13.3.7 18.8 5 8 6.3 15.9 12.7 23.9 19.1 1 .8 2.1 1.6 3.3 2.5 1.3-1.2 2.3-2.2 3.2-3-8.4-8.7-16.7-17.3-25.4-26.4 8.1-.8 15.7-1.9 23.4-2.4 51.9-3.6 103.8-7.2 155.7-10.7 4-.3 8-.6 12-.7 8.7-.1 13.2 3.3 16.7 11.2 3.7 8.6 7.8 17 12 25.9 2-.7 3.5-1.3 5.6-2.1-4.8-12.5-9.6-24.7-14.5-37.6h22.7c20.1.1 40.2.4 60.4.4 3.4 0 5.5 1.4 6.5 4.2 2.2 6.7 4.1 13.6 6 20.4.6 2 .9 4.1 1.4 6.5 1.9-.4 3.6-.7 5.7-1.1-1-9.7-1.9-19.2-2.9-29.1h85.6c-.7 9.7-1.3 19.3-2 29.1 1.9.3 3.6.6 5.6 1 1.1-5.8 2.1-11.4 3.3-17.1.5-2.2 1-4.5 1.9-6.5 2.2-4.8 5.3-7.6 11.4-7.6 26.8.2 53.7 0 80.5-.1h4.8zm-362.8 170.8c4.9-.5 9.9-.8 14.8-1.7 37-6.5 61.7-41.7 54.8-77.7-7.7-39.9-46.7-64.6-86.3-54.8-33.1 8.2-60.2 39.8-51.8 80 6.5 31.9 34.2 53.8 68.5 54.2zm276-69.4c0 39.7 29.8 69.3 69.7 69.3 39.2 0 69.6-29.6 69.6-67.7 0-37.4-31.3-68.4-69-68.4-38.9 0-70.3 29.9-70.3 66.8zm-415.2-4.8c.8-.5 1.4-.7 2-1.2.6-.5 1.2-1.1 1.7-1.7 8.7-9.4 11.9-20.4 7.7-32.7-4.2-12.4-13.5-19.3-26.3-20.6-13.3-1.4-26.7-2-40.1-2.6-6.6-.3-13.3-.1-19.8-.1v129.4c15.6 0 30.9.2 46.2-.1 7.3-.2 15-.4 21.9-2.5 23.8-7.2 32.5-37.4 16.7-56.7-3-3.5-6.3-7-10-11.2zm333.4 15.8h43.2v53.5h25.2v-126.9h-26.2v46.3h-42.9v-46.1h-25v126.8h25.7v-53.6zm355-50.1c-14.2-20.5-45.6-34.3-77-24.5-30.6 9.6-48.6 34.7-47.8 67.4.7 31.5 20.2 56.2 50.4 63.7 30.8 7.6 60.7-5.1 73.7-25.6-5.1-4.7-10.3-9.5-15-13.8-8.9 4.4-17.8 9.7-27.4 13.3-17 6.5-32.4 3.3-45.1-10.4-15.1-16.3-15.2-44.2.4-58.3 19.9-17.9 39.2-19.5 60.3-5.3 4 2.7 7.8 5.6 11.8 8.4 5.3-5 10.5-9.9 15.7-14.9zm107.9 103.1c-.7-1.1-1.4-2.3-2.2-3.3-14.6-21.2-29.1-42.4-43.8-63.6-1.4-2-1.7-3.4 0-5.5 11.9-14.9 23.5-29.9 35.3-44.9 2-2.6 4-5.2 6.1-8-18.1-6-31.9-1.5-41.5 12.5-5.3 7.8-11.4 15.2-17.2 22.7-.6.8-2.4 1.7-3 1.4-.9-.4-1.6-2-1.7-3.1-.1-8.6-.1-17.2-.1-25.8v-8.5h-24.2v126.7h24.9v-49c6.9 5.1 20.6 22.4 26.5 33.2 8.7 16.2 23.3 21.6 40.9 15.2zm-584.4-23.6c3.2 7.3 7 13.7 12.6 18.9 10.8 9.8 23.7 11.1 37.3 9.2 21.2-2.9 35.5-24 30.3-44.6-2.5-10-8.8-17.7-16.3-24.4-7.9-7.2-16-14.3-24.3-21.1-5.5-4.5-7-10.1-6.8-16.3 12.3-7.7 20.1 1.1 28.3 8 5.9-5.3 11.4-10.3 17.1-15.4-7.3-10.1-16.4-17-28-20.3-14.8-4.3-30.2 1.3-39.4 14-8.1 11.2-7.8 24.3 1.9 37.6 4.4 6 9.9 11.3 15.3 16.5 6.7 6.5 13.9 12.5 20.8 18.9 4.2 3.9 4.9 9.2 4.6 14.5-.1 1.7-1.9 3.9-3.4 4.7-8.6 4.4-17.4 2.7-24.1-4.3-2.3-2.4-4.6-4.8-6.9-7.3-6.5 3.9-12.6 7.5-19 11.4zm82.1 142.1c.3-.8.5-1.2.5-1.6 0-24.8.1-49.6-.3-74.4 0-2.6-1.8-6.2-3.9-7.5-11.6-7.2-23.5-14-35.3-20.8-2.6-1.5-5.6 1-5.1 3.9l.7 4.8c1.7 10.9 3.4 21.9 5.2 33.3-2.4-1-4.3-2-6.3-2.7-2-.7-4.1-1.4-6.2-1.8-6.5-1.2-11.3 1.5-13.5 7.8-.7 1.9-1.3 3.9-1.4 5.8-.3 9.8-.8 19.6-.5 29.3.3 10.7 4.3 14.9 15 16.3 6.2.8 12.5 1.2 18.8 2.1 10.8 1.7 21.5 3.7 32.3 5.5zm138-101.5c-17.6-5.6-31.2-2.1-38.4 14.7-.7 1.6-1.7 3.1-2.8 4.4-9.2 11.2-10.8 24.6-9.4 38 1.4 13.6 3.6 27.1 2.7 40.8-.2 2.6 0 5.2 0 7.9 6.8-.8 13-1.8 19.3-2.2 9.8-.6 13.8-4.5 13.7-14.4l-.3-37.8c0-4.3-.3-8.6.1-12.8.6-6.4 3.9-9.2 10.3-9.5 1.5-.1 3.1 0 4.8 0v-29.1zm217.2 65.3c-.4-24.8-8.9-45.2-29.6-59.3-11.9-8.1-25.2-12.3-39.6-9.8-24.6 4.2-40.1 19.5-48.8 42.3-3 7.8-3.8 15.8-.1 23.5 3.1 6.4 7 12.3 10.6 18.4.3.5.9 1 1.4 1.3 4.5 1.7 10.4-1.3 11.4-6.1.5-2.5.3-5.1.4-7.6.2-11.5-.3-23.1.6-34.5 1.4-17.1 16.9-29.8 34.9-29.6 18.9.2 33.2 12.8 34.3 30.9.6 10.2.3 20.4.4 30.6 0 1.4.1 2.8.2 4.5 8.1-1.6 15.7-3 23.9-4.6zm-616.2-208.6v127.3h23.6v-127.3h-23.6zm63.9 149.7c-11-1.1-21.4.2-31.4 4.3-8.9 3.7-15.2 10.1-16.6 19.7-1.4 9.1-1.5 18.3-1.8 27.5-.1 3.2 1.7 6 5.4 6.6 16.6 2.6 33.3 5.1 50.4 7.6-2-22.2-4-43.9-6-65.7zm22.2-12.5c-.3 1.5-.6 3-.8 4.4-2.7 16.4-.6 32 6.9 46.9 3.2 6.4 5.5 12.9 5.2 20.3-.2 5.1 2.1 9.5 7 11.8 5.4 2.6 11.1 2.4 17.2 1.7v-52.5c0-3.1.6-5.7 3.4-7.6 3.7-2.6 5.1-6.5 4.9-10.9-.3-4.6-1-9.2-1.6-14-14.2-.1-28.1-.1-42.2-.1zm391.7 39.1c-13.4-1.4-29.1 4.2-38.6 13.7-9.6 9.5-13.5 21-11.6 34.4.8 6.1 5.7 12 9.9 11.5 14.9-1.8 29.7-4 45-6.1-1.6-18.2-3.2-35.9-4.7-53.5zm-317.4 53.3v-65.8c-9.4 0-18.5-.1-27.7 0-5.7.1-8.7 3.1-8.9 8.7-.2 5 0 9.9 0 14.9 0 8.4-.2 16.9.2 25.3.2 5 1.4 10.6 7.1 11.8 9.6 2.3 19.3 3.5 29.3 5.1zm370.1-5.7c6.6-5.1 8.1-11.9 8-19.5-.1-7.5-.3-15 .1-22.5.5-10.7 7.3-17.4 17.5-17.9 10.8-.6 17.8 5 19.7 15.9.4 2.5.6 5.1.6 7.6.1 7.1.3 14.2-.1 21.3-.2 4.1 1.5 6.1 4.9 7.3 4.3-4.2 8.2-8.3 8-14.8-.2-7.4.1-14.8-.2-22.1-.5-12-6.6-20.6-17.5-25.4-11.4-5.1-22.7-3.9-33.5 2.3-9.8 5.7-11.8 14.9-11.7 25.2.1 12.5.3 24.9.2 37.4.1 3.1 1.1 4.8 4 5.2zm11.4-4.5c4.3-.3 8.4-.5 12.5-.8 2.5-.2 5.1-.5 7.6-1.1 7-1.5 10-4.6 10.3-11.9.4-8.6.4-17.2.2-25.7-.2-7.5-6.1-12.4-14.5-12.6-8.9-.3-15.6 4.1-15.9 11.8-.6 13.3-.2 26.5-.2 40.3zm-153.2 27.9c5.6-2.8 10.6-5.4 15.6-7.9 3.2-1.6 5.1-4 5.2-7.9.2-10.3.7-20.6.9-31 .1-7.5 0-14.9 0-22.6h-21.7v69.4zm-69 7.8c7.8-1.8 15.2-3.1 22.2-5.2 2.2-.7 5-3.8 5.1-5.9.5-13.5.2-27 .2-40.7h-27.5v51.8zm-32-107.1c-2.6 2.7-6 4.7-5.9 9.4.2 26 .2 52.1 0 78.1 0 5.4 1.4 9.6 5.7 12.9 1.7 1.3 3.1 2 4.4.5 1.1-1.3 2.2-3.2 2.2-4.9 0-27.8-.2-55.6-.1-83.3.1-5.4-1.2-9.6-6.3-12.7zm247.1-42.8c-28.1 21.8-55.9 43.2-83.9 64.9 1 1.4 1.9 2.5 2.8 3.7 32.4-15.9 56.9-41.8 85.6-62.4-1.5-2.1-2.8-3.9-4.5-6.2zm-371.4 68c0 16.6-.1 33.2.1 49.8 0 1.5 1.1 3.3 2.3 4.4 2.1 2 4.6 3.5 7.6 5.7 1.2-1.9 2.8-3.4 2.9-4.9.4-8.3.2-16.6.5-24.9.3-9.5-.2-18.7-5.3-27.1-2-3.2-4-5.1-8.1-3zm-69.7 44.4c1.8-18.2-9.5-40.3-23.1-45.3.3 4.8.6 9.4 1 14 .7 8.3 1.4 16.5 2.2 24.8.4 3.8 2.7 6.2 6.5 6.5 4.5.2 9 0 13.4 0zm184.8-45.9l-1.2-.7c-1.7 2.8-4.8 5.5-5 8.4-1.2 19.7-1.7 39.3-2.6 59-.2 3.9 1 6.4 4.5 7.4 5.2-2.9 4.3-7.8 4.3-12.2v-61.9zm-327.4-33.7c17.9 6.6 35.7 13 53.4 19.7 4.4 1.7 8.3 1 12.1-.5.9-2.9-.3-4-2.8-4.8-6-1.9-11.8-4.2-17.6-6.6-13-5.3-25.9-10.9-40.1-12.2-3.4-.2-5 .4-5 4.4zm660.9 29.7c23.8-10.1 47.4-20.1 70.9-30.1-.2-.4-.4-.9-.5-1.3-26.6 1.1-49 14.7-73 24 .8 2.4 1.5 4.4 2.6 7.4zm19.3-128.1l-.9-1.4c-24.9 9.1-45 25-63 44.3 1.4 1.8 2.3 2.9 3.3 4.3 20.4-15.8 40.5-31.5 60.6-47.2zm-485.1 90l-.6 1.4c15 15.5 31.1 29.7 51.1 38.8 1.8.8 3.8 1.1 6.4 1.8-.8-1.3-1-1.9-1.5-2.4-13.8-15.4-29.7-28.2-48.4-37.4-2.1-1.1-4.6-1.5-7-2.2zm193 65.5c3-19.6 5.9-39.1 9-58.9-2.4-.2-4.2-.4-6.1-.6-6.2 19.3-7.5 38.9-8.8 58.7 1.4.3 2.6.5 3.8.7l2.1.1zm-34.3 55c-.5-24.2 2.1-48.1-5.2-71.3v71.3h5.2zm200.5-28.5c-6-6.5-11.8-12.8-18.2-19.8-1.4 2.1-3.4 3.7-3.3 5.1.5 7.4 1.5 14.8 2.5 23 6.3-3.6 14.9 0 19-8.3zm-473.7-102.7c12.1 14.4 29.7 19 45.3 28.1-2.3-11.9-32.4-28-45.3-28.1zm280.4 57.1c-1.1-6-1.9-11.4-3-16.8-1.3-6.7-2.5-13.4-4.2-19.9-1.3-4.8-1.9-4.8-7.1-2.5 2.9 13.4 5.9 26.9 8.9 40.5 2.2-.5 3.9-.9 5.4-1.3zm-40.3-11.9c-2.6-13.8-8.9-26-17.6-37.8-2.2 10.6.8 16.9 17.6 37.8z"/><path d="M273.9 200.5c-34.3-.4-61.9-22.3-68.6-54.1-8.4-40.2 18.6-71.8 51.8-80 39.6-9.8 78.6 14.9 86.3 54.8 7 36-17.8 71.2-54.8 77.7-4.8.8-9.8 1.1-14.7 1.6zm.4-111.2c-25.2 0-43.5 18.1-43.6 43.2 0 25 18.4 43.5 43.3 43.6 24.5 0 43.6-18.8 43.7-43 .1-24.8-18.8-43.8-43.4-43.8zM549.9 131.1c0-37 31.3-66.8 70.3-66.8 37.7 0 69 31 69 68.4 0 38.1-30.4 67.7-69.6 67.7-39.9 0-69.6-29.5-69.7-69.3zm113 1.4c-.1-24.2-19.3-43.5-43.4-43.5-25 0-43.4 19-43.3 44.5.1 23.7 19.3 42.5 43.4 42.4 24.4 0 43.4-19.1 43.3-43.4zM134.7 126.3c3.7 4.1 7 7.6 10 11.3 15.7 19.2 7.1 49.4-16.7 56.7-6.9 2.1-14.5 2.3-21.9 2.5-15.3.4-30.6.1-46.2.1v-129.4c6.5 0 13.2-.3 19.8.1 13.4.7 26.8 1.2 40.1 2.6 12.8 1.3 22.1 8.2 26.3 20.6 4.1 12.3 1 23.2-7.7 32.7-.5.6-1.1 1.2-1.7 1.7-.6.4-1.2.7-2 1.1zm-51.7 46.3c9.6 0 18.8.2 28.1-.1 3.9-.1 8.1-.9 11.6-2.6 2.3-1.1 4.6-4 5.2-6.5 1.9-7.8-5.6-19.6-13.5-20.7-10.3-1.5-20.7-1.8-31.3-2.6-.1 11.3-.1 21.6-.1 32.5zm.1-55.6c9.9 0 19.4.4 28.8-.2 5-.3 10.5-7.1 10.8-11.7.3-4.1-4.8-11.6-9.7-12.1-9.9-1.1-19.9-1.1-29.9-1.6v25.6zM468.1 142.1v53.6h-25.7v-126.8h25v46.1h42.9v-46.3h26.2v126.9h-25.2v-53.5h-43.2zM823.1 92c-5.2 4.9-10.4 9.9-15.7 15-4-2.9-7.8-5.7-11.8-8.4-21-14.3-40.4-12.6-60.3 5.3-15.6 14.1-15.6 42-.4 58.3 12.7 13.7 28.1 16.8 45.1 10.4 9.6-3.6 18.5-8.9 27.4-13.3 4.7 4.3 9.9 9.1 15 13.8-13.1 20.5-43 33.2-73.7 25.6-30.2-7.4-49.7-32.2-50.4-63.7-.8-32.7 17.3-57.9 47.8-67.4 31.4-9.9 62.8 3.9 77 24.4zM931 195.1c-17.7 6.4-32.2.9-40.9-15.1-5.9-10.8-19.6-28.1-26.5-33.2v49h-24.9v-126.7h24.2v8.5c0 8.6-.1 17.2.1 25.8 0 1.1.8 2.7 1.7 3.1.7.3 2.4-.6 3-1.4 5.8-7.5 11.9-14.9 17.2-22.7 9.5-14 23.4-18.5 41.5-12.5-2.1 2.7-4 5.4-6.1 8-11.7 15-23.4 30-35.3 44.9-1.7 2.2-1.4 3.5 0 5.5 14.7 21.2 29.2 42.4 43.8 63.6.8 1 1.5 2.1 2.2 3.2zM346.6 171.5l18.9-11.4 6.9 7.3c6.7 7 15.5 8.8 24.1 4.3 1.6-.8 3.3-3.1 3.4-4.7.3-5.3-.4-10.6-4.6-14.5-6.9-6.4-14.1-12.4-20.8-18.9-5.4-5.2-10.9-10.4-15.3-16.5-9.7-13.4-10-26.5-1.9-37.6 9.2-12.7 24.6-18.3 39.4-14 11.6 3.3 20.8 10.3 28 20.3-5.7 5.1-11.2 10.1-17.1 15.4-8.2-6.9-16-15.7-28.3-8-.2 6.2 1.3 11.8 6.8 16.3 8.3 6.8 16.3 13.9 24.3 21.1 7.4 6.7 13.8 14.4 16.3 24.4 5.2 20.6-9.1 41.7-30.3 44.6-13.6 1.9-26.6.6-37.3-9.2-5.6-5.1-9.3-11.5-12.5-18.9zM428.7 313.6c-10.8-1.8-21.6-3.7-32.4-5.4-6.2-.9-12.5-1.3-18.8-2.1-10.6-1.4-14.7-5.5-15-16.3-.2-9.8.2-19.6.5-29.3.1-2 .7-4 1.4-5.8 2.3-6.3 7-9 13.5-7.8 2.1.4 4.1 1.1 6.2 1.8 2 .7 3.9 1.7 6.3 2.7-1.8-11.4-3.5-22.3-5.2-33.3l-.7-4.8c-.4-3 2.5-5.4 5.1-3.9 11.9 6.8 23.8 13.5 35.3 20.8 2.1 1.3 3.8 4.9 3.9 7.5.3 24.8.2 49.6.3 74.4.1.3-.1.6-.4 1.5zm-32.2-18.7c.5-.1 1-.1 1.4-.2-1.6-13.3 2.9-27.4-6.8-39.5 1.8 13.3 3.6 26.5 5.4 39.7zM566.7 212.1v29.1c-1.7 0-3.2-.1-4.8 0-6.4.3-9.7 3.1-10.3 9.5-.4 4.2-.1 8.6-.1 12.8l.3 37.8c.1 9.8-4 13.8-13.7 14.4-6.3.4-12.5 1.4-19.3 2.2 0-2.7-.1-5.3 0-7.9.9-13.7-1.3-27.2-2.7-40.8-1.4-13.4.2-26.8 9.4-38 1.1-1.3 2.1-2.8 2.8-4.4 7.2-16.8 20.8-20.3 38.4-14.7zM783.9 277.4c-8.2 1.5-15.8 3-23.8 4.5-.1-1.7-.2-3.1-.2-4.5-.1-10.2.2-20.4-.4-30.6-1.1-18.1-15.4-30.7-34.3-30.9-18-.2-33.5 12.5-34.9 29.6-1 11.4-.5 23-.6 34.5 0 2.5.1 5.1-.4 7.6-.9 4.8-6.8 7.8-11.4 6.1-.6-.2-1.1-.7-1.4-1.3-3.6-6.1-7.5-12.1-10.6-18.4-3.7-7.7-2.9-15.6.1-23.5 8.7-22.8 24.2-38.1 48.8-42.3 14.4-2.5 27.7 1.7 39.6 9.8 20.6 14.3 29.1 34.6 29.5 59.4zM167.7 68.8h23.6v127.3h-23.6v-127.3zM231.6 218.5c2 21.8 4 43.5 6 65.7-17.1-2.6-33.8-5.1-50.4-7.6-3.7-.6-5.5-3.4-5.4-6.6.3-9.2.4-18.5 1.8-27.5 1.5-9.5 7.7-16 16.6-19.7 10-4 20.3-5.4 31.4-4.3zM253.8 206h42.1c.6 4.8 1.3 9.4 1.6 14 .2 4.3-1.2 8.3-4.9 10.9-2.8 2-3.4 4.5-3.4 7.6v52.5c-6.1.8-11.8.9-17.2-1.7-4.9-2.3-7.2-6.7-7-11.8.3-7.4-2-13.9-5.2-20.3-7.5-14.9-9.6-30.5-6.9-46.9.4-1.3.6-2.8.9-4.3zM645.5 245.1c1.5 17.6 3.1 35.2 4.7 53.5-15.3 2.1-30.1 4.2-45 6.1-4.2.5-9.1-5.5-9.9-11.5-1.9-13.4 2-24.9 11.6-34.4 9.5-9.4 25.2-15 38.6-13.7zM328.1 298.4c-10-1.6-19.7-2.8-29.2-4.9-5.7-1.3-6.9-6.8-7.1-11.8-.4-8.4-.2-16.9-.2-25.3 0-5-.2-9.9 0-14.9.3-5.7 3.3-8.6 8.9-8.7 9.1-.2 18.2 0 27.7 0-.1 21.7-.1 43.2-.1 65.6zM698.2 292.7c-3-.4-4-2.1-3.9-5.2.1-12.5-.1-24.9-.2-37.4-.1-10.3 1.9-19.5 11.7-25.2 10.8-6.2 22.1-7.4 33.5-2.3 10.8 4.8 16.9 13.4 17.5 25.4.3 7.4 0 14.8.2 22.1.2 6.5-3.7 10.6-8 14.8-3.5-1.2-5.1-3.2-4.9-7.3.4-7.1.2-14.2.1-21.3 0-2.5-.2-5.1-.6-7.6-1.9-10.8-8.9-16.4-19.7-15.9-10.2.5-17 7.2-17.5 17.9-.4 7.5-.2 15-.1 22.5 0 7.6-1.5 14.4-8.1 19.5zM709.6 288.2c0-13.8-.4-27.1.1-40.3.3-7.7 7-12.1 15.9-11.8 8.3.3 14.2 5.1 14.5 12.6.3 8.6.2 17.2-.2 25.7-.3 7.3-3.3 10.3-10.3 11.9-2.5.5-5 .8-7.6 1.1-4 .4-8.1.6-12.4.8zM556.4 316.1v-69.3h21.7c0 7.7.1 15.1 0 22.6-.2 10.3-.7 20.6-.9 31-.1 3.8-1.9 6.3-5.2 7.9-5 2.4-10 5-15.6 7.8zM487.4 323.9v-51.8h27.5c0 13.7.2 27.2-.2 40.7-.1 2.1-2.9 5.2-5.1 5.9-7.1 2.2-14.4 3.5-22.2 5.2zM455.4 216.8c5.1 3.1 6.4 7.3 6.3 12.7-.2 27.8.1 55.6.1 83.3 0 1.7-1.1 3.6-2.2 4.9-1.3 1.5-2.7.8-4.4-.5-4.3-3.4-5.7-7.6-5.7-12.9.2-26 .2-52.1 0-78.1-.1-4.7 3.3-6.7 5.9-9.4zM702.5 174c1.7 2.2 3 4.1 4.6 6.2-28.7 20.5-53.3 46.4-85.6 62.4-.9-1.2-1.7-2.3-2.8-3.7 27.9-21.6 55.7-43.1 83.8-64.9zM331.1 242c4.1-2.1 6.1-.2 8 2.9 5.1 8.4 5.6 17.7 5.3 27.1-.2 8.3-.1 16.6-.5 24.9-.1 1.6-1.7 3-2.9 4.9-3-2.2-5.5-3.7-7.6-5.7-1.2-1.1-2.3-2.9-2.3-4.4v-49.7zM261.4 286.4c-4.4 0-9 .2-13.5-.1-3.8-.3-6.2-2.6-6.5-6.5-.8-8.2-1.5-16.5-2.2-24.8-.4-4.6-.6-9.3-1-14 13.8 5.1 25.1 27.2 23.2 45.4zM446.2 240.5v61.9c0 4.5.9 9.3-4.3 12.2-3.5-1.1-4.7-3.5-4.5-7.4.9-19.7 1.4-39.4 2.6-59 .2-2.9 3.3-5.6 5-8.4.4.2.8.4 1.2.7zM118.8 206.8c0-4 1.7-4.7 4.9-4.4 14.3 1.3 27.1 6.9 40.1 12.2 5.8 2.4 11.7 4.6 17.6 6.6 2.5.8 3.7 1.9 2.8 4.8-3.8 1.6-7.7 2.2-12.1.5-17.6-6.7-35.5-13.1-53.3-19.7zM779.7 236.5c-1.1-3-1.8-5-2.7-7.4 24-9.3 46.5-22.9 73-24 .2.4.4.9.5 1.3-23.5 10-47 20-70.8 30.1zM799 108.4c-20.1 15.7-40.3 31.4-60.6 47.2-1.1-1.4-1.9-2.5-3.3-4.3 18-19.4 38.2-35.2 63-44.3l.9 1.4zM313.9 198.4c2.4.7 4.9 1.1 7.1 2.2 18.6 9.2 34.5 21.9 48.4 37.4.4.5.7 1.1 1.5 2.4-2.7-.7-4.7-1-6.4-1.8-20-9.1-36.1-23.2-51.1-38.8.1-.5.3-.9.5-1.4zM506.9 263.9c-1.1 0-1.6 0-2.1-.1-1.2-.2-2.3-.4-3.8-.7 1.2-19.8 2.5-39.4 8.8-58.7 1.9.2 3.6.4 6.1.6-3 19.8-6 39.3-9 58.9zM472.6 318.9h-5.2v-71.3c7.4 23.2 4.8 47.1 5.2 71.3zM673.1 290.4c-4.1 8.4-12.7 4.7-19.1 8.3-.9-8.2-2-15.6-2.5-23-.1-1.4 1.9-3 3.3-5.1 6.5 7 12.4 13.3 18.3 19.8zM199.4 187.7c12.9.1 43 16.2 45.3 28.1-15.5-9.1-33.2-13.7-45.3-28.1zM479.8 244.8c-1.6.4-3.2.8-5.4 1.4-3-13.6-5.9-27.1-8.9-40.5 5.2-2.3 5.8-2.3 7.1 2.5 1.8 6.5 2.9 13.3 4.2 19.9 1.1 5.3 2 10.7 3 16.7zM439.5 232.9c-16.9-20.9-19.9-27.2-17.6-37.8 8.7 11.8 15 24 17.6 37.8z"/><path fill="#fff" d="M274.3 89.3c24.6 0 43.5 19.1 43.4 43.7-.1 24.2-19.2 43.1-43.7 43-24.9 0-43.3-18.5-43.3-43.6.1-25 18.4-43.2 43.6-43.1zm-36.5 41.2c1.7 15.6 34.5 39.8 44.8 35.7-14.9-11.8-29.8-23.7-44.8-35.7zM662.9 132.5c.1 24.3-18.9 43.3-43.3 43.4-24 .1-43.3-18.7-43.4-42.4-.1-25.5 18.4-44.5 43.3-44.5 24.1 0 43.3 19.3 43.4 43.5zm-73.7 17.6l25.3-52.2c-13.3 2.6-31.6 40.6-25.3 52.2zM83 172.6v-32.5c10.6.8 21.1 1.1 31.3 2.6 8 1.1 15.4 12.9 13.5 20.7-.6 2.5-2.9 5.4-5.2 6.5-3.5 1.6-7.7 2.4-11.6 2.6-9.1.3-18.4.1-28 .1zM83.1 117v-25.6c10 .5 20 .5 29.9 1.6 4.9.5 10 8 9.7 12.1-.3 4.6-5.8 11.4-10.8 11.7-9.4.6-18.9.2-28.8.2zM396.5 294.9c-1.8-13.2-3.6-26.5-5.3-39.7 9.7 12.1 5.2 26.2 6.8 39.5-.5.1-1 .2-1.5.2z"/><path d="M237.8 130.5c15 12 29.9 23.8 44.8 35.7-10.3 4.2-43.1-20.1-44.8-35.7zM589.2 150.1c-6.2-11.6 12-49.6 25.3-52.2-8.5 17.6-16.9 34.8-25.3 52.2z"/></svg>