<svg baseProfile="tiny" xmlns="http://www.w3.org/2000/svg" viewBox="0 0 1603.6 1540.3"><path fill="#fff" d="M4.4 1540.3v-1535.6h1599.2v1535.6h-1599.2zm615.7-679.2l4.1-5.8c5.9 4.5 12.6 8.2 17.4 13.6 22.1 24.7 48.6 41.5 81.7 46.2 31.6 4.6 63.2 9.1 95 12.2 7.3.7 17.2-2.4 22.4-7.4 37.7-36.1 42.4-75.2 8.7-115-32-37.8-67-73.7-104.7-105.7-43-36.5-46.8-86.1-60.8-140 21.7 8.4 37.7 13.7 52.9 20.6 47.5 21.4 94.6 17 140.3-3.7 39.4-17.8 50.6-79.5 22.4-112.1-20.3-23.5-93.5-42.2-126.2-31.4 11.6 29.8 6.2 72.1 56.8 71.2-27.5 15.6-46.4 9-54.9-19.4-5.3-17.7-9.9-35.6-16.1-53-2.1-5.8-7.5-12.3-13-14.8-25.8-11.8-51.6-24.4-78.7-32.4-16.1-4.8-35.2-4.9-51.8-1.5-46.4 9.6-61.1 46.9-64.2 87.5-5.2 67.1-17.9 132.1-40.4 195.4-10.8 30.6-4.1 59.2 9.6 88.4 26.7 57.1 54.2 114.4 74.6 173.9 27.9 81.2 39.6 165.8 28.5 252.1-6.5 50.7-20.2 97.7-67 127.4-5.9 3.8-10.5 9.6-16.1 13.9-14.7 11.1-16.2 20.6-.4 33.2 31.9 25.5 68.3 40.2 107.5 49.3 91.5 21.2 182.4 11.7 272.8-6.8 39.3-8 78-19.2 116.9-28.9.6-2.4 1.2-4.7 1.9-7.1-11.5-8.6-22.1-18.7-34.6-25.5-44.1-24.1-63.2-63.2-68.9-110.8-.5-4.2-1.1-8.5-1.9-12.6-12-64.2-.9-127.4 7.8-190.8 5-36.3 12.3-30.9-29.1-43-20.8-6.1-40.6-15.9-60.8-24-12.3-4.9-24.3-11.8-37.1-14.4-30.6-6.1-61.8-9.2-92.4-15.1-42.2-8.2-78.6-26.3-102.2-63.7zm-266.8-542.9c-78.8-61.2-154.6-120-230.4-178.8-2 2.1-4 4.1-5.9 6.2l296.3 457.2 6.9-1.8c7.3-63 14.7-126.1 22.5-193.3 31.5 36.9 59.2 69.4 87.4 102.5 8.4-33.9 13.3-65.3 24.1-94.5 11.9-32.1 41.4-46.3 78.5-53.7-81-79-157.6-153.7-238.5-232.6-14.2 66.1-27.1 125.5-40.9 188.8zm878.1 391.7c-32.4-28.3-61.6-53.7-94.2-82.1-10.9 47.5-40.2 77.6-77.5 105.4 76.2 67.7 150.6 133.8 229.4 203.8 8.7-57.4 16.6-109.5 25-164.6 60.8 48 118.9 93.8 177.1 139.7l6.1-6.2-231-340.5-6.6 2.7c-9.2 46.2-18.4 92.4-28.3 141.8zm-650.6-413.6c24.8 22.5 45.2 48 71.5 62.9 37.4 21.2 78.8 36 119.5 50.5 14.5 5.2 32.1 2.2 48.2 1.7 12.6-.4 18.5-7.5 17.8-21-1.8-36.9-1.7-73.9-4.4-110.7-.8-11.2-5.3-24.8-13-32.4-29.8-29.4-65.7-45.1-108.5-34.9-52.3 12.4-90.4 47.5-131.1 83.9zm209.3 313.3c-.1.6-.8 2.4-.2 3.3 19 27.6 45.7 42.5 78.8 43.2 32 .7 56.1-14.4 70.2-43.3 39-80.2 54.6-164 35.7-252.5-13-60.9-39.5-79.4-101.3-73.4-16.4 1.6-24.3 7.2-23.2 25 1.3 20.5 2 41.4-.3 61.7-2.8 25.4 3.9 41.1 28.1 54.2 32.1 17.3 48.7 48.5 46.4 85.3-2.5 39.7-24.4 68.3-62.6 80.8-22.4 7.4-46.5 10.4-71.6 15.7zm60.9 334.2c24 8.8 50.7 18.9 77.6 28.6 24.1 8.7 42.9-.9 58.8-18.5 41.1-45.6 58.1-99.8 58.1-160.4 0-15-7.3-15.1-19.2-13.6-48.3 6-93.2-4.4-134.6-29.8-9.3-5.7-18.6-11.6-27.9-17.4l-7.5 4.6c10.2 26.5 21.3 52.8 30.3 79.7 4.2 12.6 9.2 28.4 5.2 39.7-9.7 27.6-24.5 53.4-40.8 87.1zm224.6-436.5c-.9-7.1-1.9-18.4-3.9-29.6-5.9-34-22.9-59.3-57.1-70.6-13.5-4.4-21.5-2.8-21.4 14.7.1 22-1.5 44-3.8 65.9-5 46.8-12 93.1-41.5 132.5-3 4-3 12.3-1.2 17.5 5.9 17.2 14.5 32.9 34.6 37 19.8 4 32.1-8.2 43.4-21.5 34.7-40.8 48.9-89 50.9-145.9zm60 73c-5.1-22.3-8.6-44.7-16.1-65.7-2.4-6.7-14.8-10.7-23.4-13.8-1.8-.6-8.9 7.8-10.4 13-10.7 37.2-20.4 74.8-30.7 112.2-5.2 18.9 6 53.5 19.6 59 15.3 6.2 34.8-7 43.9-34 7.7-22.5 11.4-46.4 17.1-70.7z"/><path d="M620.1 861.1c23.6 37.4 60 55.5 102.2 63.6 30.6 5.9 61.8 9 92.4 15.1 12.8 2.5 24.7 9.4 37.1 14.4 20.2 8.1 40 18 60.8 24 41.4 12.1 34.1 6.6 29.1 43-8.7 63.4-19.8 126.6-7.8 190.8.8 4.2 1.4 8.4 1.9 12.6 5.7 47.7 24.8 86.7 68.9 110.8 12.5 6.8 23.1 16.9 34.6 25.5-.6 2.4-1.2 4.7-1.9 7.1-38.9 9.7-77.6 20.9-116.9 28.9-90.4 18.5-181.3 28-272.8 6.8-39.2-9.1-75.6-23.9-107.5-49.3-15.8-12.6-14.3-22.1.4-33.2 5.7-4.3 10.2-10.1 16.1-13.9 46.7-29.7 60.5-76.6 67-127.4 11-86.3-.6-170.8-28.5-252.1-20.5-59.5-47.9-116.7-74.6-173.9-13.7-29.2-20.4-57.8-9.6-88.4 22.4-63.4 35.2-128.3 40.4-195.4 3.1-40.6 17.8-77.9 64.2-87.5 16.6-3.4 35.7-3.3 51.8 1.5 27.1 8.1 52.9 20.7 78.7 32.4 5.5 2.5 10.9 8.9 13 14.8 6.3 17.3 10.8 35.3 16.1 53 8.5 28.3 27.4 35 54.9 19.4-50.6.9-45.2-41.3-56.8-71.2 32.7-10.9 105.9 7.8 126.2 31.4 28.2 32.7 16.9 94.3-22.4 112.1-45.7 20.7-92.8 25.1-140.3 3.7-15.3-6.9-31.3-12.2-52.9-20.6 14 53.9 17.8 103.5 60.8 140 37.7 32 72.7 67.9 104.7 105.7 33.7 39.9 28.9 78.9-8.7 115-5.2 5-15.1 8.1-22.4 7.4-31.8-3.1-63.4-7.6-95-12.2-33.1-4.8-59.6-21.5-81.7-46.2-4.8-5.4-11.6-9.1-17.4-13.6-1.4 2.1-2.8 4-4.1 5.9zm-266.8-542.9c13.8-63.3 26.7-122.6 41-188.7 80.9 78.8 157.5 153.5 238.5 232.5-37.1 7.4-66.6 21.6-78.5 53.7-10.8 29.2-15.7 60.6-24.1 94.5-28.2-33.1-56-65.6-87.4-102.5-7.8 67.3-15.2 130.3-22.5 193.3l-6.9 1.8c-98.9-152.4-197.6-304.8-296.4-457.2 2-2.1 4-4.1 5.9-6.2 75.8 58.8 151.6 117.6 230.4 178.8zm878.1 391.7c9.9-49.5 19.1-95.7 28.3-141.9l6.6-2.7 231 340.5-6.1 6.2c-58.1-45.9-116.3-91.7-177.1-139.7-8.4 55.2-16.3 107.2-25 164.6-78.8-70-153.3-136.2-229.4-203.8 37.3-27.8 66.6-57.9 77.5-105.4 32.6 28.5 61.8 53.9 94.2 82.2zm-650.6-413.6c40.7-36.4 78.8-71.5 131.2-83.9 42.7-10.1 78.6 5.5 108.5 34.9 7.7 7.6 12.2 21.2 13 32.4 2.7 36.8 2.6 73.8 4.4 110.7.7 13.6-5.2 20.6-17.8 21-16.1.5-33.7 3.5-48.2-1.7-40.7-14.5-82.1-29.3-119.5-50.5-26.4-14.8-46.8-40.4-71.6-62.9zm209.3 313.3c25.1-5.3 49.1-8.3 71.7-15.7 38.2-12.5 60.1-41.1 62.6-80.8 2.3-36.8-14.3-68-46.4-85.3-24.2-13.1-30.9-28.8-28.1-54.2 2.3-20.4 1.5-41.2.3-61.7-1.1-17.8 6.8-23.4 23.2-25 61.8-6 88.3 12.5 101.3 73.4 18.9 88.4 3.2 172.2-35.7 252.5-14 28.9-38.2 44-70.2 43.3-33.2-.7-59.8-15.6-78.8-43.2-.7-.9.1-2.7.1-3.3zm60.9 334.2c16.2-33.7 31-59.5 40.8-87.1 4-11.3-1-27.1-5.2-39.7-9-27-20.1-53.2-30.3-79.7l7.5-4.6c9.3 5.8 18.6 11.7 27.9 17.4 41.5 25.4 86.4 35.8 134.6 29.8 11.9-1.5 19.1-1.4 19.2 13.6 0 60.6-17 114.9-58.1 160.4-15.9 17.6-34.7 27.2-58.8 18.5-26.9-9.6-53.6-19.7-77.6-28.6zm224.6-436.5c-2 56.9-16.2 105.1-50.8 146-11.3 13.3-23.6 25.5-43.4 21.5-20.1-4.1-28.7-19.8-34.6-37-1.8-5.2-1.8-13.5 1.2-17.5 29.5-39.4 36.5-85.7 41.5-132.5 2.3-21.9 3.9-43.9 3.8-65.9-.1-17.5 7.9-19.1 21.4-14.7 34.2 11.2 51.1 36.6 57.1 70.6 1.9 11.1 2.9 22.4 3.8 29.5zm60 73c-5.7 24.3-9.4 48.2-17 70.7-9.2 27-28.6 40.3-43.9 34-13.6-5.5-24.8-40.1-19.6-59 10.3-37.4 20-75 30.7-112.3 1.5-5.2 8.6-13.6 10.4-13 8.6 3.1 21 7 23.4 13.8 7.3 21.1 10.8 43.5 16 65.8z"/></svg>